<svg xmlns="http://www.w3.org/2000/svg" xmlns:xlink="http://www.w3.org/1999/xlink" viewBox="0 0 1024 1024" width="1024" height="1024" preserveAspectRatio="xMidYMid meet" style="width: 100%; height: 100%; transform: translate3d(0px, 0px, 0px); content-visibility: visible;" id="Pencil"><defs><clipPath id="__lottie_element_3"><rect width="1024" height="1024" x="0" y="0"/></clipPath><g id="__lottie_element_20"><g transform="matrix(1,0,0,1,14.229965209960938,16.549972534179688)" opacity="1" style="display: block;"><g opacity="1" transform="matrix(1,0,0,1,165.72999572753906,164.49000549316406)"><path fill="rgb(238,82,80)" fill-opacity="1" d=" M165.47999572753906,-39.36000061035156 C165.47999572753906,-39.36000061035156 122.19999694824219,114.95999908447266 122.19999694824219,114.95999908447266 C122.19999694824219,114.95999908447266 -38.119998931884766,164.24000549316406 -38.119998931884766,164.24000549316406 C-38.119998931884766,164.24000549316406 -128.67999267578125,73.76000213623047 -128.67999267578125,73.76000213623047 C-153.63999938964844,48.79999923706055 -165.47999572753906,-0.9599999785423279 -99.31999969482422,-67.12000274658203 C-99.31999969482422,-67.12000274658203 -59.400001525878906,-107.04000091552734 -59.400001525878906,-107.04000091552734 C-2.200000047683716,-164.24000549316406 50.040000915527344,-154.8800048828125 75,-129.9199981689453 C75,-129.9199981689453 165.47999572753906,-39.36000061035156 165.47999572753906,-39.36000061035156z"/></g></g></g><mask id="__lottie_element_20_1" mask-type="alpha"><use xmlns:ns1="http://www.w3.org/1999/xlink" ns1:href="#__lottie_element_20"/></mask></defs><g clip-path="url(#__lottie_element_3)"><g transform="matrix(1,0,0,1,586.8699340820312,586.7099609375)" opacity="1" style="display: block;"><g opacity="1" transform="matrix(1,0,0,1,206.2100067138672,206.2100067138672)"><path fill="rgb(255,235,179)" fill-opacity="1" d=" M197.8800048828125,157.4810028076172 C197.8800048828125,157.4810028076172 148.44000244140625,25.559999465942383 148.44000244140625,25.559999465942383 C148.44000244140625,25.559999465942383 114.44000244140625,-65.23999786376953 114.44000244140625,-65.23999786376953 C106.76000213623047,-88.67900085449219 105.31999969482422,-98.36000061035156 92.27999877929688,-111.39900207519531 C92.27999877929688,-111.39900207519531 -2.2799999713897705,-205.95899963378906 -2.2799999713897705,-205.95899963378906 C-2.2799999713897705,-205.95899963378906 -205.9600067138672,-2.2809998989105225 -205.9600067138672,-2.2809998989105225 C-205.9600067138672,-2.2809998989105225 -111.31999969482422,92.36100006103516 -111.31999969482422,92.36100006103516 C-103.55999755859375,100.12100219726562 -88.68000030517578,106.75900268554688 -65.23999786376953,114.44000244140625 C-65.23999786376953,114.44000244140625 25.559999465942383,148.44000244140625 25.559999465942383,148.44000244140625 C25.559999465942383,148.44000244140625 157.47999572753906,197.8800048828125 157.47999572753906,197.8800048828125 C182.36000061035156,205.9600067138672 205.9600067138672,182.36099243164062 197.8800048828125,157.4810028076172z"/></g></g><g transform="matrix(1,0,0,1,841.0299072265625,840.868896484375)" opacity="1" style="display: block;"><g opacity="1" transform="matrix(1,0,0,1,79.12999725341797,79.12999725341797)"><path fill="rgb(96,96,96)" fill-opacity="1" d=" M30.399999618530273,70.80000305175781 C30.399999618530273,70.80000305175781 -78.87999725341797,29.84000015258789 -78.87999725341797,29.84000015258789 C-78.87999725341797,29.84000015258789 -33.7599983215332,27.280000686645508 -3.2799999713897705,-3.200000047683716 C27.200000762939453,-33.67900085449219 29.84000015258789,-78.87999725341797 29.84000015258789,-78.87999725341797 C29.84000015258789,-78.87999725341797 70.80000305175781,30.400999069213867 70.80000305175781,30.400999069213867 C78.87999725341797,55.279998779296875 55.279998779296875,78.87999725341797 30.399999618530273,70.80000305175781z"/></g></g><g transform="matrix(1,0,0,1,213.5899658203125,213.50997924804688)" opacity="1" style="display: block;"><g opacity="1" transform="matrix(1,0,0,1,347.8900146484375,347.0899963378906)"><path fill="rgb(255,193,6)" fill-opacity="1" d=" M-287.32000732421875,-203.47999572753906 C-287.32000732421875,-203.47999572753906 -204.36000061035156,-286.44000244140625 -204.36000061035156,-286.44000244140625 C-204.36000061035156,-286.44000244140625 277.4800109863281,195.39999389648438 277.4800109863281,195.39999389648438 C277.4800109863281,195.39999389648438 287.32000732421875,236.36000061035156 262.2799987792969,261.3999938964844 C237.24000549316406,286.44000244140625 194.52000427246094,278.3599853515625 194.52000427246094,278.3599853515625 C194.52000427246094,278.3599853515625 -287.32000732421875,-203.47999572753906 -287.32000732421875,-203.47999572753906z"/></g><g opacity="1" transform="matrix(1,0,0,1,272.4100036621094,416.3299865722656)"><path fill="rgb(255,159,0)" fill-opacity="1" d=" M-272.1600036621094,-212.39999389648438 C-272.1600036621094,-212.39999389648438 196.47999572753906,256.239990234375 196.47999572753906,256.239990234375 C272.1600036621094,272.7200012207031 268.8800048828125,208 268.8800048828125,208 C268.8800048828125,208 -211.83999633789062,-272.7200012207031 -211.83999633789062,-272.7200012207031 C-211.83999633789062,-272.7200012207031 -272.1600036621094,-212.39999389648438 -272.1600036621094,-212.39999389648438z"/></g><g opacity="1" transform="matrix(1,0,0,1,427.25,270.7699890136719)"><path fill="rgb(252,215,53)" fill-opacity="1" d=" M-283.6400146484375,-210.1999969482422 C-283.6400146484375,-210.1999969482422 197.0800018310547,270.5199890136719 197.0800018310547,270.5199890136719 C197.0800018310547,270.5199890136719 283.6400146484375,270.5199890136719 244.0399932861328,196.83999633789062 C244.0399932861328,196.83999633789062 -223.32000732421875,-270.5199890136719 -223.32000732421875,-270.5199890136719 C-223.32000732421875,-270.5199890136719 -283.6400146484375,-210.1999969482422 -283.6400146484375,-210.1999969482422z"/></g><g opacity="1" transform="matrix(1,0,0,1,305.3299865722656,386.7300109863281)"><path fill="rgb(209,118,44)" fill-opacity="1" d=" M235.24000549316406,248.0800018310547 C235.24000549316406,248.0800018310547 -249.63999938964844,-236.8000030517578 -249.63999938964844,-236.8000030517578 C-249.63999938964844,-236.8000030517578 -238.36000061035156,-248.0800018310547 -238.36000061035156,-248.0800018310547 C-238.36000061035156,-248.0800018310547 249.63999938964844,239.9199981689453 249.63999938964844,239.9199981689453 C249.63999938964844,239.9199981689453 237.0800018310547,238.63999938964844 237.0800018310547,238.63999938964844 C237.0800018310547,238.63999938964844 235.24000549316406,248.0800018310547 235.24000549316406,248.0800018310547z"/></g><g opacity="1" transform="matrix(1,0,0,1,371.1700134277344,290.2099914550781)"><path fill="rgb(240,148,52)" fill-opacity="1" d=" M256.1199951171875,265.4800109863281 C256.1199951171875,265.4800109863281 -263.55999755859375,-254.1999969482422 -263.55999755859375,-254.1999969482422 C-263.55999755859375,-254.1999969482422 -252.1999969482422,-265.4800109863281 -252.1999969482422,-265.4800109863281 C-252.1999969482422,-265.4800109863281 263.55999755859375,250.27999877929688 263.55999755859375,250.27999877929688 C263.55999755859375,250.27999877929688 254.1999969482422,252.1999969482422 254.1999969482422,252.1999969482422 C254.1999969482422,252.1999969482422 256.1199951171875,265.4800109863281 256.1199951171875,265.4800109863281z"/></g></g><g transform="matrix(1,0,0,1,14.229965209960938,16.549972534179688)" opacity="1" style="display: block;"><g opacity="1" transform="matrix(1,0,0,1,165.72999572753906,164.49000549316406)"><path fill="rgb(238,82,80)" fill-opacity="1" d=" M165.47999572753906,-39.36000061035156 C165.47999572753906,-39.36000061035156 122.19999694824219,114.95999908447266 122.19999694824219,114.95999908447266 C122.19999694824219,114.95999908447266 -38.119998931884766,164.24000549316406 -38.119998931884766,164.24000549316406 C-38.119998931884766,164.24000549316406 -128.67999267578125,73.76000213623047 -128.67999267578125,73.76000213623047 C-153.63999938964844,48.79999923706055 -165.47999572753906,-0.9599999785423279 -99.31999969482422,-67.12000274658203 C-99.31999969482422,-67.12000274658203 -59.400001525878906,-107.04000091552734 -59.400001525878906,-107.04000091552734 C-2.200000047683716,-164.24000549316406 50.040000915527344,-154.8800048828125 75,-129.9199981689453 C75,-129.9199981689453 165.47999572753906,-39.36000061035156 165.47999572753906,-39.36000061035156z"/></g></g><g mask="url(#__lottie_element_20_1)" style="display: block;"><g transform="matrix(1,0,0,1,21.2049560546875,21.1729736328125)" opacity="1"><g opacity="1" transform="matrix(1,0,0,1,99.17400360107422,99.17400360107422)"><path fill="rgb(255,131,131)" fill-opacity="1" d=" M-25.17300033569336,-25.17300033569336 C21.783000946044922,-72.12899780273438 71.11900329589844,-98.92400360107422 85.02100372314453,-85.02200317382812 C98.92400360107422,-71.11900329589844 72.12899780273438,-21.784000396728516 25.172000885009766,25.17300033569336 C-21.784000396728516,72.12899780273438 -71.11900329589844,98.92400360107422 -85.02200317382812,85.02100372314453 C-98.92400360107422,71.11900329589844 -72.12899780273438,21.783000946044922 -25.17300033569336,-25.17300033569336z"/></g></g></g><g transform="matrix(1,0,0,1,213.8399658203125,213.75997924804688)" opacity="0.2" style="display: block;"><g opacity="1" transform="matrix(1,0,0,1,109.5999984741211,108.83999633789062)"><path fill="rgb(78,52,45)" fill-opacity="1" d=" M94.08000183105469,-108.83999633789062 C94.08000183105469,-108.83999633789062 50.31999969482422,-44.119998931884766 14.079999923706055,-7.480000019073486 C-55.279998779296875,62.439998626708984 -109.5999984741211,94.83999633789062 -109.5999984741211,94.83999633789062 C-109.5999984741211,94.83999633789062 -95.5999984741211,108.83999633789062 -95.5999984741211,108.83999633789062 C-75.68000030517578,101.08000183105469 -24.719999313354492,77.80000305175781 26.15999984741211,27 C77.36000061035156,-24.200000762939453 101.5199966430664,-74.19999694824219 109.5999984741211,-93.31999969482422 C109.5999984741211,-93.31999969482422 94.08000183105469,-108.83999633789062 94.08000183105469,-108.83999633789062z"/></g></g><g transform="matrix(1,0,0,1,113.02996826171875,116.54997253417969)" opacity="1" style="display: block;"><g opacity="1" transform="matrix(1,0,0,1,155.25,152.69000244140625)"><path fill="rgb(147,209,223)" fill-opacity="1" d=" M-80.36000061035156,145.9600067138672 C-75.87999725341797,150.44000244140625 -69.55999755859375,152.44000244140625 -63.31999969482422,151.39999389648438 C-63.31999969482422,151.39999389648438 2.200000047683716,131.39999389648438 67.31999969482422,66.27999877929688 C132.44000244140625,1.159999966621399 153.9600067138672,-62.279998779296875 153.9600067138672,-62.279998779296875 C155,-68.5199966430664 153,-74.91999816894531 148.52000427246094,-79.4000015258789 C148.52000427246094,-79.4000015258789 79.87999725341797,-148.0399932861328 79.87999725341797,-148.0399932861328 C77,-150.9199981689453 73,-152.44000244140625 69,-151.9600067138672 C67.63999938964844,-151.8000030517578 66.27999877929688,-151.63999938964844 64.83999633789062,-151.39999389648438 C59.400001525878906,-150.60000610351562 55.08000183105469,-146.60000610351562 53.560001373291016,-141.32000732421875 C53.560001373291016,-141.32000732421875 22.200000762939453,-80.5199966430664 -29.479999542236328,-28.920000076293945 C-81.16000366210938,22.68000030517578 -144.1999969482422,52.7599983215332 -144.1999969482422,52.7599983215332 C-149.47999572753906,54.20000076293945 -153.55999755859375,58.439998626708984 -154.36000061035156,63.880001068115234 C-154.36000061035156,63.880001068115234 -154.36000061035156,64.04000091552734 -154.36000061035156,64.04000091552734 C-155,68.36000061035156 -153.55999755859375,72.68000030517578 -150.52000427246094,75.72000122070312 C-150.52000427246094,75.72000122070312 -80.36000061035156,145.9600067138672 -80.36000061035156,145.9600067138672z"/></g></g><g transform="matrix(1,0,0,1,296.469970703125,158.30996704101562)" opacity="1" style="display: block;"><g opacity="1" transform="matrix(1,0,0,1,46.56999969482422,63.25)"><path fill="rgb(184,227,234)" fill-opacity="1" d=" M-40,46.20000076293945 C-42.08000183105469,48.36000061035156 -44.2400016784668,50.52000045776367 -45.279998779296875,53.31999969482422 C-46.31999969482422,56.119998931884766 -45.91999816894531,59.720001220703125 -43.52000045776367,61.47999954223633 C-41.52000045776367,63 -38.79999923706055,62.84000015258789 -36.31999969482422,62.439998626708984 C-22.479999542236328,60.279998779296875 -10.239999771118164,52.439998626708984 0.5600000023841858,43.63999938964844 C24.15999984741211,24.520000457763672 44.15999984741211,-2.0399999618530273 46.08000183105469,-32.36000061035156 C46.31999969482422,-35.959999084472656 46.2400016784668,-39.720001220703125 44.63999938964844,-42.91999816894531 C34.47999954223633,-63 12.960000038146973,-18.1200008392334 8.720000267028809,-11.800000190734863 C-5.440000057220459,9.239999771118164 -22.31999969482422,28.1200008392334 -40,46.20000076293945z"/></g></g><g transform="matrix(1,0,0,1,199.90997314453125,116.38996887207031)" opacity="1" style="display: block;"><g opacity="1" transform="matrix(1,0,0,1,76.97000122070312,88.05000305175781)"><path fill="rgb(184,227,234)" fill-opacity="1" d=" M56,-30.520000457763672 C29.68000030517578,19.8799991607666 -13.600000381469727,61.2400016784668 -65.12000274658203,85.16000366210938 C-68.4800033569336,86.68000030517578 -73.19999694824219,87.80000305175781 -75.19999694824219,84.76000213623047 C-76.72000122070312,82.36000061035156 -75.36000061035156,79.31999969482422 -73.83999633789062,76.91999816894531 C-67.12000274658203,66.5199966430664 -57.84000015258789,58.119998931884766 -48.880001068115234,49.560001373291016 C-25.520000457763672,27.15999984741211 -4.079999923706055,2.8399999141693115 15.199999809265137,-23.079999923706055 C25.040000915527344,-36.279998779296875 34.2400016784668,-49.880001068115234 42.880001068115234,-63.880001068115234 C47.68000030517578,-71.55999755859375 56.2400016784668,-87.80000305175781 67.19999694824219,-76.36000061035156 C76.72000122070312,-66.5199966430664 61.040000915527344,-40.20000076293945 56,-30.520000457763672z"/></g></g></g></svg>